<svg width="315" height="278" viewBox="0 0 315 278" fill="none" xmlns="http://www.w3.org/2000/svg">
<path d="M314.825 135.688C314.825 225.754 280.988 278 202.583 278C124.177 278 44.286 209.378 19.1618 135.688C-7.82341 56.5397 18.9744 8.97247 97.3796 8.97247C175.785 8.97247 314.825 45.6226 314.825 135.688Z" fill="#168D92"/>
<path d="M305.853 126.716C305.853 216.782 272.015 269.028 193.61 269.028C115.205 269.028 35.3135 200.406 10.1893 126.716C-16.7959 47.5672 10.0019 0 88.4072 0C166.812 0 305.853 36.6501 305.853 126.716Z" fill="#27CFD6"/>
<path d="M49.76 26.72H54.2821V51.5916H49.76V40.5734H38.9572V51.5916H34.4351V26.72H38.9572V36.6615H49.76V26.72Z" fill="white"/>
<path d="M77.5657 26.72V30.632H69.9211V51.5916H65.3631V30.632H57.7186V26.72H77.5657Z" fill="white"/>
<path d="M86.4341 26.72C86.9605 27.6292 87.5467 28.7418 88.1927 30.0577C88.8387 31.3737 89.4967 32.7614 90.1666 34.2209C90.8366 35.6565 91.4945 37.128 92.1406 38.6354C92.8105 40.1188 93.4206 41.4946 93.9709 42.7627C94.5213 41.4946 95.1194 40.1188 95.7654 38.6354C96.4114 37.128 97.0694 35.6565 97.7394 34.2209C98.4093 32.7614 99.0673 31.3737 99.7133 30.0577C100.359 28.7418 100.946 27.6292 101.472 26.72H105.563C105.779 28.5384 105.982 30.4764 106.173 32.5341C106.365 34.5679 106.532 36.6615 106.676 38.8148C106.843 40.9443 106.987 43.0977 107.107 45.275C107.25 47.4284 107.37 49.5339 107.466 51.5916H103.015C102.919 48.6965 102.8 45.7176 102.656 42.6551C102.537 39.5925 102.345 36.6256 102.082 33.7544C101.819 34.3047 101.508 34.9627 101.149 35.7283C100.79 36.494 100.407 37.3314 100 38.2406C99.5937 39.1259 99.175 40.0471 98.7443 41.0041C98.3375 41.9612 97.9308 42.8943 97.524 43.8035C97.1412 44.6888 96.7823 45.5262 96.4473 46.3158C96.1124 47.0815 95.8252 47.7394 95.586 48.2898H92.2123C91.9731 47.7394 91.686 47.0695 91.351 46.2799C91.016 45.4903 90.6452 44.6529 90.2384 43.7676C89.8556 42.8584 89.4488 41.9253 89.0182 40.9682C88.6114 40.0112 88.2046 39.09 87.7979 38.2047C87.3911 37.3194 87.0083 36.494 86.6494 35.7283C86.2905 34.9387 85.9795 34.2808 85.7163 33.7544C85.4531 36.6256 85.2497 39.5925 85.1062 42.6551C84.9865 45.7176 84.8789 48.6965 84.7831 51.5916H80.3328C80.4285 49.5339 80.5362 47.4045 80.6558 45.2032C80.7994 43.002 80.9429 40.8247 81.0865 38.6713C81.254 36.494 81.4334 34.3884 81.6248 32.3547C81.8163 30.3209 82.0196 28.4427 82.235 26.72H86.4341Z" fill="white"/>
<path d="M128.453 47.6796V51.5916H112.734V26.72H117.256V47.6796H128.453Z" fill="white"/>
<path d="M158.013 93.6274C156.147 93.6274 154.472 93.3403 152.988 92.7661C151.505 92.1918 150.249 91.3544 149.22 90.2538C148.191 89.1292 147.401 87.7654 146.851 86.1623C146.301 84.5593 146.026 82.7169 146.026 80.6353C146.026 78.5537 146.337 76.7114 146.959 75.1083C147.605 73.5052 148.478 72.1533 149.579 71.0527C150.679 69.9282 151.971 69.0788 153.455 68.5045C154.938 67.9303 156.529 67.6432 158.228 67.6432C159.257 67.6432 160.19 67.7269 161.028 67.8944C161.865 68.038 162.595 68.2055 163.217 68.3969C163.839 68.5883 164.353 68.7917 164.76 69.007C165.167 69.2223 165.454 69.3779 165.621 69.4736L164.293 73.1702C163.719 72.8113 162.894 72.4764 161.817 72.1653C160.764 71.8303 159.616 71.6628 158.372 71.6628C157.295 71.6628 156.29 71.8543 155.357 72.2371C154.424 72.596 153.61 73.1463 152.916 73.888C152.246 74.6297 151.72 75.5629 151.337 76.6874C150.954 77.812 150.763 79.116 150.763 80.5994C150.763 81.9154 150.907 83.1237 151.194 84.2243C151.505 85.3249 151.971 86.282 152.593 87.0955C153.216 87.885 154.005 88.5071 154.962 88.9617C155.919 89.3924 157.068 89.6078 158.408 89.6078C160.011 89.6078 161.315 89.4522 162.32 89.1412C163.324 88.8062 164.102 88.4952 164.652 88.2081L165.873 91.9047C165.586 92.0961 165.191 92.2875 164.688 92.4789C164.21 92.6704 163.636 92.8618 162.966 93.0532C162.296 93.2207 161.542 93.3523 160.705 93.448C159.867 93.5676 158.97 93.6274 158.013 93.6274Z" fill="white"/>
<path d="M176.19 89.7154C177.817 89.7154 179.002 89.4403 179.744 88.89C180.485 88.3397 180.856 87.562 180.856 86.5571C180.856 85.959 180.724 85.4445 180.461 85.0139C180.222 84.5832 179.863 84.2004 179.385 83.8654C178.93 83.5065 178.368 83.1835 177.698 82.8964C177.028 82.5853 176.262 82.2862 175.401 81.9991C174.539 81.6881 173.702 81.3531 172.889 80.9942C172.099 80.6114 171.393 80.1448 170.771 79.5945C170.173 79.0442 169.682 78.3862 169.3 77.6206C168.941 76.8549 168.761 75.9337 168.761 74.857C168.761 72.6079 169.539 70.8493 171.094 69.5812C172.649 68.2892 174.767 67.6432 177.447 67.6432C179.002 67.6432 180.378 67.8226 181.574 68.1815C182.794 68.5165 183.751 68.8874 184.445 69.2941L183.045 72.9549C182.232 72.5003 181.335 72.1533 180.354 71.9141C179.397 71.6748 178.404 71.5552 177.375 71.5552C176.155 71.5552 175.197 71.8064 174.504 72.3089C173.834 72.8113 173.499 73.5172 173.499 74.4264C173.499 74.9767 173.606 75.4552 173.822 75.862C174.061 76.2448 174.384 76.5917 174.791 76.9028C175.221 77.2138 175.712 77.5009 176.262 77.7641C176.836 78.0273 177.459 78.2785 178.128 78.5178C179.301 78.9485 180.342 79.3911 181.251 79.8457C182.184 80.2764 182.962 80.8028 183.584 81.4249C184.23 82.023 184.72 82.7408 185.055 83.5783C185.39 84.3918 185.558 85.3847 185.558 86.5571C185.558 88.8062 184.756 90.5529 183.153 91.797C181.574 93.0173 179.253 93.6274 176.19 93.6274C175.162 93.6274 174.216 93.5556 173.355 93.4121C172.518 93.2924 171.764 93.1369 171.094 92.9455C170.448 92.7541 169.886 92.5627 169.407 92.3713C168.929 92.1559 168.546 91.9645 168.259 91.797L169.587 88.1004C170.233 88.4593 171.106 88.8182 172.207 89.1771C173.307 89.536 174.635 89.7154 176.19 89.7154Z" fill="white"/>
<path d="M195.572 89.7154C197.199 89.7154 198.384 89.4403 199.125 88.89C199.867 88.3397 200.238 87.562 200.238 86.5571C200.238 85.959 200.106 85.4445 199.843 85.0139C199.604 84.5832 199.245 84.2004 198.767 83.8654C198.312 83.5065 197.75 83.1835 197.08 82.8964C196.41 82.5853 195.644 82.2862 194.783 81.9991C193.921 81.6881 193.084 81.3531 192.27 80.9942C191.481 80.6114 190.775 80.1448 190.153 79.5945C189.555 79.0442 189.064 78.3862 188.681 77.6206C188.323 76.8549 188.143 75.9337 188.143 74.857C188.143 72.6079 188.921 70.8493 190.476 69.5812C192.031 68.2892 194.149 67.6432 196.828 67.6432C198.384 67.6432 199.759 67.8226 200.956 68.1815C202.176 68.5165 203.133 68.8874 203.827 69.2941L202.427 72.9549C201.614 72.5003 200.717 72.1533 199.736 71.9141C198.778 71.6748 197.786 71.5552 196.757 71.5552C195.536 71.5552 194.579 71.8064 193.885 72.3089C193.216 72.8113 192.881 73.5172 192.881 74.4264C192.881 74.9767 192.988 75.4552 193.204 75.862C193.443 76.2448 193.766 76.5917 194.173 76.9028C194.603 77.2138 195.094 77.5009 195.644 77.7641C196.218 78.0273 196.84 78.2785 197.51 78.5178C198.683 78.9485 199.724 79.3911 200.633 79.8457C201.566 80.2764 202.344 80.8028 202.966 81.4249C203.612 82.023 204.102 82.7408 204.437 83.5783C204.772 84.3918 204.94 85.3847 204.94 86.5571C204.94 88.8062 204.138 90.5529 202.535 91.797C200.956 93.0173 198.635 93.6274 195.572 93.6274C194.543 93.6274 193.598 93.5556 192.737 93.4121C191.9 93.2924 191.146 93.1369 190.476 92.9455C189.83 92.7541 189.268 92.5627 188.789 92.3713C188.311 92.1559 187.928 91.9645 187.641 91.797L188.969 88.1004C189.615 88.4593 190.488 88.8182 191.589 89.1771C192.689 89.536 194.017 89.7154 195.572 89.7154Z" fill="white"/>
<path d="M80.2749 127.274C78.4086 127.274 76.7337 126.987 75.2503 126.413C73.7668 125.839 72.5107 125.001 71.4819 123.901C70.453 122.776 69.6634 121.412 69.1131 119.809C68.5628 118.206 68.2877 116.364 68.2877 114.282C68.2877 112.2 68.5987 110.358 69.2208 108.755C69.8668 107.152 70.7401 105.8 71.8408 104.699C72.9414 103.575 74.2334 102.726 75.7169 102.151C77.2003 101.577 78.7914 101.29 80.4902 101.29C81.519 101.29 82.4522 101.374 83.2896 101.541C84.127 101.685 84.8568 101.852 85.4789 102.044C86.101 102.235 86.6154 102.438 87.0221 102.654C87.4289 102.869 87.716 103.025 87.8835 103.12L86.5556 106.817C85.9813 106.458 85.1559 106.123 84.0792 105.812C83.0264 105.477 81.8779 105.31 80.6338 105.31C79.5571 105.31 78.5521 105.501 77.619 105.884C76.6859 106.243 75.8724 106.793 75.1785 107.535C74.5086 108.276 73.9822 109.21 73.5994 110.334C73.2165 111.459 73.0251 112.763 73.0251 114.246C73.0251 115.562 73.1687 116.77 73.4558 117.871C73.7668 118.972 74.2334 119.929 74.8555 120.742C75.4776 121.532 76.2672 122.154 77.2242 122.608C78.1813 123.039 79.3298 123.254 80.6696 123.254C82.2727 123.254 83.5767 123.099 84.5816 122.788C85.5866 122.453 86.3642 122.142 86.9145 121.855L88.1347 125.551C87.8476 125.743 87.4528 125.934 86.9504 126.126C86.4718 126.317 85.8976 126.508 85.2277 126.7C84.5577 126.867 83.804 126.999 82.9666 127.095C82.1292 127.214 81.2319 127.274 80.2749 127.274Z" fill="white"/>
<path d="M102.48 120.419H97.491L96.2708 126.736H92.4306L93.6508 120.419H90.7796V117.01H94.2968L95.3376 111.59H90.7796V108.217H95.9837L97.2039 101.864H101.044L99.8239 108.217H104.813L106.033 101.864H109.873L108.653 108.217H111.56V111.59H108.007L106.966 117.01H111.56V120.419H106.32L105.1 126.736H101.259L102.48 120.419ZM98.1371 117.01H103.126L104.167 111.59H99.1779L98.1371 117.01Z" fill="white"/>
<path d="M154.18 154.766C155.807 154.766 156.991 154.491 157.733 153.94C158.475 153.39 158.845 152.612 158.845 151.607C158.845 151.009 158.714 150.495 158.451 150.064C158.211 149.633 157.853 149.251 157.374 148.916C156.919 148.557 156.357 148.234 155.687 147.947C155.017 147.636 154.252 147.336 153.39 147.049C152.529 146.738 151.691 146.403 150.878 146.044C150.088 145.662 149.383 145.195 148.76 144.645C148.162 144.094 147.672 143.436 147.289 142.671C146.93 141.905 146.751 140.984 146.751 139.907C146.751 137.658 147.528 135.9 149.083 134.631C150.639 133.339 152.756 132.693 155.436 132.693C156.991 132.693 158.367 132.873 159.563 133.232C160.784 133.567 161.741 133.938 162.434 134.344L161.035 138.005C160.221 137.551 159.324 137.204 158.343 136.964C157.386 136.725 156.393 136.605 155.364 136.605C154.144 136.605 153.187 136.857 152.493 137.359C151.823 137.862 151.488 138.567 151.488 139.477C151.488 140.027 151.596 140.505 151.811 140.912C152.05 141.295 152.373 141.642 152.78 141.953C153.211 142.264 153.701 142.551 154.252 142.814C154.826 143.078 155.448 143.329 156.118 143.568C157.29 143.999 158.331 144.441 159.24 144.896C160.173 145.327 160.951 145.853 161.573 146.475C162.219 147.073 162.71 147.791 163.045 148.629C163.38 149.442 163.547 150.435 163.547 151.607C163.547 153.856 162.746 155.603 161.142 156.847C159.563 158.068 157.242 158.678 154.18 158.678C153.151 158.678 152.206 158.606 151.345 158.462C150.507 158.343 149.753 158.187 149.083 157.996C148.437 157.804 147.875 157.613 147.397 157.422C146.918 157.206 146.535 157.015 146.248 156.847L147.576 153.151C148.222 153.51 149.095 153.868 150.196 154.227C151.297 154.586 152.625 154.766 154.18 154.766Z" fill="white"/>
<path d="M166.276 148.772C166.276 147.384 166.491 146.092 166.922 144.896C167.353 143.676 167.963 142.623 168.752 141.738C169.566 140.852 170.547 140.159 171.695 139.656C172.844 139.154 174.136 138.902 175.572 138.902C177.342 138.902 179.017 139.225 180.596 139.871L179.663 143.424C179.161 143.209 178.586 143.03 177.94 142.886C177.318 142.743 176.648 142.671 175.93 142.671C174.232 142.671 172.94 143.209 172.054 144.286C171.169 145.339 170.726 146.834 170.726 148.772C170.726 150.638 171.145 152.122 171.983 153.222C172.82 154.299 174.232 154.837 176.218 154.837C176.959 154.837 177.689 154.766 178.407 154.622C179.125 154.479 179.747 154.299 180.273 154.084L180.883 157.673C180.405 157.912 179.675 158.127 178.694 158.319C177.737 158.51 176.744 158.606 175.715 158.606C174.112 158.606 172.712 158.367 171.516 157.888C170.344 157.386 169.363 156.704 168.573 155.842C167.807 154.957 167.233 153.916 166.85 152.72C166.468 151.5 166.276 150.184 166.276 148.772Z" fill="white"/>
<path d="M194.941 143.281C194.582 143.161 194.079 143.042 193.433 142.922C192.811 142.778 192.081 142.707 191.244 142.707C190.765 142.707 190.251 142.755 189.701 142.85C189.174 142.946 188.803 143.03 188.588 143.101V158.139H184.245V140.266C185.083 139.955 186.124 139.668 187.368 139.405C188.636 139.118 190.036 138.974 191.567 138.974C191.854 138.974 192.189 138.998 192.572 139.046C192.955 139.07 193.337 139.118 193.72 139.189C194.103 139.237 194.474 139.309 194.833 139.405C195.192 139.477 195.479 139.548 195.694 139.62L194.941 143.281Z" fill="white"/>
<path d="M205.324 155.089C206.664 155.089 207.681 155.017 208.375 154.873V150.064C208.136 149.992 207.789 149.921 207.334 149.849C206.879 149.777 206.377 149.741 205.827 149.741C205.348 149.741 204.858 149.777 204.355 149.849C203.877 149.921 203.434 150.052 203.027 150.244C202.644 150.435 202.333 150.71 202.094 151.069C201.855 151.404 201.735 151.835 201.735 152.361C201.735 153.39 202.058 154.108 202.704 154.514C203.35 154.897 204.224 155.089 205.324 155.089ZM204.965 138.902C206.401 138.902 207.609 139.082 208.59 139.441C209.571 139.8 210.349 140.302 210.923 140.948C211.521 141.594 211.94 142.384 212.179 143.317C212.442 144.226 212.574 145.231 212.574 146.332V157.709C211.904 157.852 210.887 158.02 209.523 158.211C208.183 158.426 206.664 158.534 204.965 158.534C203.841 158.534 202.812 158.426 201.879 158.211C200.946 157.996 200.144 157.649 199.474 157.17C198.828 156.692 198.314 156.07 197.931 155.304C197.572 154.538 197.393 153.593 197.393 152.469C197.393 151.392 197.596 150.483 198.003 149.741C198.433 148.999 199.008 148.401 199.725 147.947C200.443 147.468 201.269 147.133 202.202 146.942C203.159 146.726 204.152 146.619 205.181 146.619C205.659 146.619 206.162 146.655 206.688 146.726C207.214 146.774 207.777 146.87 208.375 147.013V146.296C208.375 145.793 208.315 145.315 208.195 144.86C208.076 144.405 207.86 144.011 207.549 143.676C207.262 143.317 206.867 143.042 206.365 142.85C205.886 142.659 205.276 142.563 204.535 142.563C203.53 142.563 202.609 142.635 201.771 142.778C200.934 142.922 200.252 143.09 199.725 143.281L199.187 139.764C199.737 139.572 200.539 139.381 201.592 139.189C202.644 138.998 203.769 138.902 204.965 138.902Z" fill="white"/>
<path d="M217.677 134.416L222.019 133.698V139.369H228.695V142.994H222.019V150.638C222.019 152.146 222.259 153.222 222.737 153.868C223.216 154.514 224.029 154.837 225.178 154.837C225.967 154.837 226.661 154.754 227.259 154.586C227.881 154.419 228.372 154.263 228.731 154.12L229.449 157.565C228.946 157.78 228.288 157.996 227.475 158.211C226.661 158.45 225.704 158.57 224.603 158.57C223.264 158.57 222.139 158.391 221.23 158.032C220.345 157.673 219.639 157.158 219.112 156.488C218.586 155.795 218.215 154.969 218 154.012C217.784 153.031 217.677 151.918 217.677 150.674V134.416Z" fill="white"/>
<path d="M231.467 148.772C231.467 147.384 231.682 146.092 232.113 144.896C232.543 143.676 233.153 142.623 233.943 141.738C234.756 140.852 235.737 140.159 236.886 139.656C238.034 139.154 239.326 138.902 240.762 138.902C242.533 138.902 244.207 139.225 245.787 139.871L244.853 143.424C244.351 143.209 243.777 143.03 243.131 142.886C242.509 142.743 241.839 142.671 241.121 142.671C239.422 142.671 238.13 143.209 237.245 144.286C236.36 145.339 235.917 146.834 235.917 148.772C235.917 150.638 236.336 152.122 237.173 153.222C238.01 154.299 239.422 154.837 241.408 154.837C242.15 154.837 242.88 154.766 243.597 154.622C244.315 154.479 244.937 154.299 245.464 154.084L246.074 157.673C245.595 157.912 244.865 158.127 243.884 158.319C242.927 158.51 241.934 158.606 240.906 158.606C239.303 158.606 237.903 158.367 236.706 157.888C235.534 157.386 234.553 156.704 233.764 155.842C232.998 154.957 232.424 153.916 232.041 152.72C231.658 151.5 231.467 150.184 231.467 148.772Z" fill="white"/>
<path d="M249.436 158.139V131.007L253.779 130.289V139.584C254.257 139.417 254.807 139.273 255.429 139.154C256.076 139.034 256.71 138.974 257.332 138.974C258.839 138.974 260.083 139.189 261.064 139.62C262.069 140.027 262.871 140.613 263.469 141.379C264.067 142.12 264.486 143.018 264.725 144.071C264.988 145.123 265.12 146.296 265.12 147.588V158.139H260.777V148.27C260.777 147.265 260.705 146.415 260.562 145.721C260.442 145.004 260.227 144.429 259.916 143.999C259.629 143.544 259.234 143.221 258.731 143.03C258.229 142.814 257.607 142.707 256.865 142.707C256.291 142.707 255.705 142.767 255.106 142.886C254.508 143.006 254.066 143.113 253.779 143.209V158.139H249.436Z" fill="white"/>
<path d="M79.2765 201.297C77.5777 201.297 76.1182 201.058 74.8979 200.579C73.6777 200.077 72.6608 199.383 71.8473 198.497C71.0577 197.612 70.4715 196.571 70.0887 195.375C69.7059 194.179 69.5145 192.863 69.5145 191.427V175.887H74.0725V190.996C74.0725 192.121 74.1921 193.09 74.4314 193.904C74.6946 194.693 75.0535 195.339 75.5081 195.842C75.9866 196.344 76.5369 196.715 77.159 196.954C77.805 197.193 78.5228 197.313 79.3124 197.313C80.102 197.313 80.8198 197.193 81.4658 196.954C82.1118 196.715 82.6621 196.344 83.1167 195.842C83.5952 195.339 83.9541 194.693 84.1934 193.904C84.4566 193.09 84.5882 192.121 84.5882 190.996V175.887H89.1462V191.427C89.1462 192.863 88.9428 194.179 88.5361 195.375C88.1532 196.571 87.5551 197.612 86.7416 198.497C85.952 199.383 84.9351 200.077 83.6909 200.579C82.4468 201.058 80.9753 201.297 79.2765 201.297Z" fill="white"/>
<path d="M94.7136 182.598C95.551 182.359 96.6397 182.132 97.9796 181.916C99.3195 181.701 100.803 181.593 102.43 181.593C103.961 181.593 105.241 181.809 106.27 182.239C107.299 182.646 108.112 183.232 108.711 183.998C109.333 184.74 109.763 185.649 110.003 186.726C110.266 187.778 110.397 188.939 110.397 190.207V200.758H106.055V190.889C106.055 189.884 105.983 189.034 105.839 188.341C105.72 187.623 105.504 187.049 105.193 186.618C104.906 186.163 104.5 185.84 103.973 185.649C103.471 185.434 102.849 185.326 102.107 185.326C101.557 185.326 100.982 185.362 100.384 185.434C99.786 185.505 99.3434 185.565 99.0563 185.613V200.758H94.7136V182.598Z" fill="white"/>
<path d="M120.086 200.758H115.744V181.988H120.086V200.758ZM120.553 176.497C120.553 177.31 120.29 177.956 119.763 178.435C119.237 178.914 118.615 179.153 117.897 179.153C117.155 179.153 116.521 178.914 115.995 178.435C115.468 177.956 115.205 177.31 115.205 176.497C115.205 175.66 115.468 175.002 115.995 174.523C116.521 174.045 117.155 173.805 117.897 173.805C118.615 173.805 119.237 174.045 119.763 174.523C120.29 175.002 120.553 175.66 120.553 176.497Z" fill="white"/>
<path d="M125.411 177.035L129.754 176.318V181.988H136.429V185.613H129.754V193.258C129.754 194.765 129.993 195.842 130.472 196.488C130.95 197.134 131.764 197.457 132.912 197.457C133.702 197.457 134.396 197.373 134.994 197.205C135.616 197.038 136.106 196.882 136.465 196.739L137.183 200.184C136.681 200.4 136.023 200.615 135.209 200.83C134.396 201.07 133.439 201.189 132.338 201.189C130.998 201.189 129.873 201.01 128.964 200.651C128.079 200.292 127.373 199.778 126.847 199.108C126.32 198.414 125.95 197.588 125.734 196.631C125.519 195.65 125.411 194.538 125.411 193.293V177.035Z" fill="white"/>
<path d="M155.952 181.988C154.014 189.118 151.765 195.578 149.205 201.369C148.726 202.445 148.236 203.366 147.734 204.132C147.231 204.898 146.669 205.532 146.047 206.034C145.425 206.537 144.731 206.896 143.965 207.111C143.199 207.35 142.314 207.47 141.309 207.47C140.639 207.47 139.969 207.398 139.299 207.255C138.653 207.111 138.163 206.955 137.828 206.788L138.618 203.307C139.479 203.642 140.328 203.809 141.166 203.809C142.29 203.809 143.164 203.534 143.786 202.984C144.432 202.457 144.994 201.632 145.472 200.507C144.109 197.875 142.793 195.004 141.525 191.894C140.28 188.783 139.168 185.481 138.187 181.988H142.817C143.056 182.993 143.343 184.082 143.678 185.254C144.037 186.426 144.42 187.623 144.826 188.843C145.233 190.039 145.664 191.236 146.118 192.432C146.573 193.628 147.028 194.741 147.482 195.77C148.248 193.64 148.966 191.379 149.636 188.987C150.306 186.57 150.916 184.237 151.466 181.988H155.952Z" fill="white"/>
<path d="M170.091 234.405V209.534H185.811V213.374H174.613V219.726H184.554V223.566H174.613V234.405H170.091Z" fill="white"/>
<path d="M194.021 234.405H189.679V215.635H194.021V234.405ZM194.488 210.144C194.488 210.957 194.225 211.603 193.698 212.082C193.172 212.56 192.55 212.799 191.832 212.799C191.09 212.799 190.456 212.56 189.93 212.082C189.404 211.603 189.14 210.957 189.14 210.144C189.14 209.306 189.404 208.648 189.93 208.17C190.456 207.691 191.09 207.452 191.832 207.452C192.55 207.452 193.172 207.691 193.698 208.17C194.225 208.648 194.488 209.306 194.488 210.144Z" fill="white"/>
<path d="M202.971 224.535C202.971 226.378 203.366 227.73 204.156 228.591C204.969 229.428 206.01 229.847 207.278 229.847C207.972 229.847 208.618 229.751 209.216 229.56C209.838 229.369 210.341 229.141 210.723 228.878V219.152C210.412 219.08 210.03 219.02 209.575 218.973C209.12 218.901 208.546 218.865 207.852 218.865C206.273 218.865 205.065 219.391 204.227 220.444C203.39 221.473 202.971 222.837 202.971 224.535ZM215.066 232.503C215.066 235.494 214.3 237.683 212.769 239.071C211.262 240.459 208.941 241.152 205.807 241.152C204.658 241.152 203.533 241.057 202.433 240.865C201.356 240.674 200.375 240.423 199.49 240.112L200.279 236.415C201.021 236.726 201.859 236.977 202.792 237.169C203.749 237.36 204.778 237.456 205.878 237.456C207.625 237.456 208.869 237.097 209.611 236.379C210.353 235.661 210.723 234.597 210.723 233.185V232.467C210.293 232.682 209.719 232.898 209.001 233.113C208.307 233.328 207.505 233.436 206.596 233.436C205.4 233.436 204.299 233.245 203.294 232.862C202.313 232.479 201.464 231.917 200.746 231.175C200.052 230.433 199.502 229.512 199.095 228.412C198.712 227.287 198.521 225.995 198.521 224.535C198.521 223.172 198.724 221.916 199.131 220.767C199.562 219.619 200.172 218.638 200.961 217.824C201.775 217.011 202.756 216.377 203.904 215.922C205.053 215.467 206.357 215.24 207.816 215.24C209.228 215.24 210.568 215.348 211.836 215.563C213.104 215.778 214.181 216.006 215.066 216.245V232.503Z" fill="white"/>
<path d="M231.286 224.535C231.286 222.573 231.035 221.162 230.532 220.3C230.054 219.415 229.145 218.973 227.805 218.973C227.326 218.973 226.8 219.008 226.226 219.08C225.651 219.152 225.221 219.212 224.934 219.26V234.405H220.591V216.245C221.428 216.006 222.517 215.778 223.857 215.563C225.221 215.348 226.656 215.24 228.164 215.24C229.456 215.24 230.508 215.407 231.322 215.742C232.159 216.077 232.853 216.52 233.404 217.07C233.667 216.879 234.002 216.676 234.408 216.46C234.815 216.245 235.27 216.054 235.772 215.886C236.275 215.695 236.801 215.539 237.351 215.419C237.926 215.3 238.5 215.24 239.074 215.24C240.534 215.24 241.73 215.455 242.663 215.886C243.62 216.293 244.362 216.879 244.888 217.645C245.439 218.386 245.809 219.296 246.001 220.372C246.216 221.425 246.324 222.585 246.324 223.854V234.405H241.981V224.535C241.981 222.573 241.742 221.162 241.263 220.3C240.785 219.415 239.864 218.973 238.5 218.973C237.806 218.973 237.148 219.092 236.526 219.331C235.904 219.547 235.437 219.762 235.126 219.977C235.318 220.576 235.449 221.21 235.521 221.88C235.593 222.55 235.629 223.267 235.629 224.033V234.405H231.286V224.535Z" fill="white"/>
<path d="M258.248 231.355C259.588 231.355 260.604 231.283 261.298 231.139V226.33C261.059 226.258 260.712 226.186 260.258 226.115C259.803 226.043 259.3 226.007 258.75 226.007C258.272 226.007 257.781 226.043 257.279 226.115C256.8 226.186 256.358 226.318 255.951 226.509C255.568 226.701 255.257 226.976 255.018 227.335C254.778 227.67 254.659 228.101 254.659 228.627C254.659 229.656 254.982 230.374 255.628 230.78C256.274 231.163 257.147 231.355 258.248 231.355ZM257.889 215.168C259.324 215.168 260.533 215.348 261.514 215.707C262.495 216.065 263.272 216.568 263.847 217.214C264.445 217.86 264.863 218.65 265.103 219.583C265.366 220.492 265.497 221.497 265.497 222.597V233.974C264.828 234.118 263.811 234.286 262.447 234.477C261.107 234.692 259.588 234.8 257.889 234.8C256.764 234.8 255.735 234.692 254.802 234.477C253.869 234.262 253.068 233.915 252.398 233.436C251.752 232.958 251.237 232.336 250.854 231.57C250.496 230.804 250.316 229.859 250.316 228.735C250.316 227.658 250.519 226.749 250.926 226.007C251.357 225.265 251.931 224.667 252.649 224.212C253.367 223.734 254.192 223.399 255.125 223.208C256.082 222.992 257.075 222.885 258.104 222.885C258.583 222.885 259.085 222.92 259.612 222.992C260.138 223.04 260.7 223.136 261.298 223.279V222.562C261.298 222.059 261.239 221.581 261.119 221.126C260.999 220.671 260.784 220.277 260.473 219.942C260.186 219.583 259.791 219.308 259.289 219.116C258.81 218.925 258.2 218.829 257.458 218.829C256.453 218.829 255.532 218.901 254.695 219.044C253.857 219.188 253.175 219.355 252.649 219.547L252.111 216.03C252.661 215.838 253.462 215.647 254.515 215.455C255.568 215.264 256.692 215.168 257.889 215.168Z" fill="white"/>
</svg>
