<svg width="444" height="103" viewBox="0 0 444 103" fill="none" xmlns="http://www.w3.org/2000/svg">
<rect width="444" height="103" fill="white"/>
<path d="M57.4117 76.9398C56.3565 75.3927 55.1003 73.7319 53.6432 71.9573C52.2362 70.1372 50.6786 68.3399 48.9702 66.5653C47.312 64.7452 45.5785 63.0162 43.7696 61.3781C41.9607 59.6945 40.1519 58.2157 38.343 56.9416V76.9398H26.5852V29.6404H38.343V47.5227C41.408 44.6106 44.4731 41.5847 47.5382 38.4451C50.6535 35.2599 53.5427 32.3251 56.2057 29.6404H70.1493C66.5817 33.4626 62.9891 37.1483 59.3713 40.6974C55.8038 44.2466 52.0353 47.8185 48.0657 51.4131C52.2362 54.5528 56.256 58.2839 60.125 62.6066C64.0443 66.9293 67.7877 71.707 71.3552 76.9398H57.4117Z" fill="#27CFD6"/>
<path d="M78.1079 29.6404H89.8657V76.9398H78.1079V29.6404Z" fill="#27CFD6"/>
<path d="M119.366 77.5541C116.502 77.5541 113.638 77.463 110.774 77.281C107.96 77.1445 105.021 76.7805 101.956 76.189V30.323C104.367 29.9134 107.005 29.6177 109.869 29.4357C112.734 29.2082 115.397 29.0944 117.859 29.0944C121.175 29.0944 124.215 29.3219 126.979 29.7769C129.792 30.1865 132.204 30.9145 134.214 31.961C136.224 33.0076 137.782 34.3954 138.887 36.1245C140.043 37.808 140.621 39.9011 140.621 42.4037C140.621 46.1804 138.611 49.1608 134.591 51.3449C137.907 52.4824 140.168 54.0295 141.374 55.9861C142.58 57.9427 143.183 60.1495 143.183 62.6066C143.183 67.5664 141.173 71.2975 137.154 73.8001C133.184 76.3027 127.255 77.5541 119.366 77.5541ZM113.412 56.3274V68.5447C114.266 68.6357 115.196 68.7039 116.201 68.7494C117.206 68.7949 118.311 68.8177 119.517 68.8177C123.034 68.8177 125.873 68.3626 128.034 67.4526C130.194 66.5426 131.275 64.859 131.275 62.4019C131.275 60.2178 130.37 58.6707 128.561 57.7607C126.752 56.8051 124.165 56.3274 120.798 56.3274H113.412ZM113.412 48.2053H119.14C122.758 48.2053 125.346 47.7957 126.903 46.9767C128.461 46.1122 129.24 44.7471 129.24 42.8815C129.24 40.9704 128.436 39.6281 126.828 38.8546C125.22 38.0811 122.858 37.6943 119.743 37.6943C118.738 37.6943 117.658 37.717 116.502 37.7625C115.346 37.7625 114.316 37.808 113.412 37.899V48.2053Z" fill="#27CFD6"/>
<path d="M152.595 76.9398V29.6404H187.868V38.5816H164.353V47.864H185.23V56.6004H164.353V67.9986H189.602V76.9398H152.595Z" fill="#27CFD6"/>
<path d="M213.603 29.0944C221.442 29.0944 227.446 30.3685 231.617 32.9166C235.787 35.4192 237.872 39.3324 237.872 44.6561C237.872 47.9777 237.018 50.6851 235.31 52.7782C233.652 54.8258 231.24 56.4411 228.074 57.6242C229.13 58.8072 230.235 60.1723 231.391 61.7194C232.546 63.2209 233.677 64.8135 234.782 66.4971C235.938 68.1351 237.043 69.8642 238.099 71.6843C239.154 73.4589 240.134 75.2107 241.038 76.9398H227.848C226.894 75.3927 225.914 73.8229 224.909 72.2303C223.954 70.6377 222.949 69.0907 221.894 67.5891C220.889 66.0875 219.884 64.677 218.879 63.3574C217.874 61.9924 216.869 60.7638 215.864 59.6718H210.061V76.9398H198.303V30.323C200.866 29.8679 203.504 29.5494 206.217 29.3674C208.98 29.1854 211.443 29.0944 213.603 29.0944ZM214.282 38.1721C213.427 38.1721 212.649 38.1948 211.945 38.2403C211.292 38.2858 210.664 38.3313 210.061 38.3768V51.2084H213.377C217.799 51.2084 220.964 50.7079 222.874 49.7068C224.783 48.7058 225.738 46.9995 225.738 44.5878C225.738 42.2672 224.758 40.6292 222.798 39.6736C220.889 38.6726 218.05 38.1721 214.282 38.1721Z" fill="#27CFD6"/>
<path d="M276.555 53.256C276.555 55.5766 276.856 57.6697 277.459 59.5353C278.112 61.4008 279.017 63.0162 280.172 64.3812C281.378 65.7008 282.835 66.7246 284.544 67.4526C286.252 68.1806 288.212 68.5447 290.423 68.5447C292.583 68.5447 294.518 68.1806 296.226 67.4526C297.985 66.7246 299.442 65.7008 300.598 64.3812C301.804 63.0162 302.708 61.4008 303.311 59.5353C303.964 57.6697 304.291 55.5766 304.291 53.256C304.291 50.9354 303.964 48.8423 303.311 46.9767C302.708 45.0656 301.804 43.4503 300.598 42.1307C299.442 40.7657 297.985 39.7191 296.226 38.9911C294.518 38.2631 292.583 37.899 290.423 37.899C288.212 37.899 286.252 38.2858 284.544 39.0594C282.835 39.7874 281.378 40.8339 280.172 42.199C279.017 43.5185 278.112 45.1339 277.459 47.045C276.856 48.9105 276.555 50.9809 276.555 53.256ZM316.425 53.256C316.425 57.3057 315.747 60.8776 314.39 63.9717C313.084 67.0203 311.275 69.5912 308.964 71.6843C306.652 73.7319 303.889 75.2789 300.673 76.3255C297.508 77.372 294.091 77.8953 290.423 77.8953C286.855 77.8953 283.489 77.372 280.323 76.3255C277.158 75.2789 274.394 73.7319 272.032 71.6843C269.671 69.5912 267.812 67.0203 266.455 63.9717C265.098 60.8776 264.42 57.3057 264.42 53.256C264.42 49.2063 265.123 45.6571 266.53 42.6085C267.937 39.5144 269.821 36.9208 272.183 34.8277C274.595 32.7346 277.359 31.1648 280.474 30.1182C283.639 29.0717 286.956 28.5484 290.423 28.5484C293.99 28.5484 297.357 29.0717 300.522 30.1182C303.688 31.1648 306.451 32.7346 308.813 34.8277C311.175 36.9208 313.034 39.5144 314.39 42.6085C315.747 45.6571 316.425 49.2063 316.425 53.256Z" fill="#27CFD6"/>
<path d="M361.274 76.9398C357.907 71.525 354.264 66.1785 350.345 60.9003C346.426 55.6221 342.255 50.6396 337.834 45.9529V76.9398H326.227V29.6404H335.799C337.457 31.142 339.291 32.9848 341.301 35.1689C343.311 37.353 345.346 39.6964 347.406 42.199C349.516 44.6561 351.601 47.227 353.661 49.9116C355.722 52.5507 357.656 55.0988 359.465 57.5559V29.6404H371.147V76.9398H361.274Z" fill="#27CFD6"/>
<path d="M383.196 76.9398V29.6404H418.469V38.5816H394.954V47.864H415.831V56.6004H394.954V67.9986H420.203V76.9398H383.196Z" fill="#27CFD6"/>
</svg>
