<svg width="50" height="50" viewBox="0 0 50 50" fill="none" xmlns="http://www.w3.org/2000/svg">
<path d="M2.75 41.25H24.75C26.5732 41.25 28.322 40.5256 29.6114 39.2364C30.9006 37.947 31.625 36.1982 31.625 34.375V16.5H24.75C23.6379 16.5 22.635 15.83 22.2093 14.8024C21.7838 13.7748 22.019 12.5919 22.8055 11.8054L33.8055 0.805448C34.8793 -0.268483 36.6207 -0.268483 37.6945 0.805448L48.6945 11.8054C49.481 12.5919 49.7164 13.7748 49.2907 14.8024C48.865 15.83 47.8624 16.5 46.75 16.5H39.875V34.375C39.875 38.3864 38.2814 42.2334 35.445 45.07C32.6084 47.9064 28.7614 49.5 24.75 49.5H2.75C1.23123 49.5 0 48.2688 0 46.75V44C0 42.4812 1.23123 41.25 2.75 41.25Z" fill="#46465A"/>
</svg>
