<svg width="85" height="85" viewBox="0 0 91 86" fill="none" xmlns="http://www.w3.org/2000/svg">
<path d="M52.9346 61.7891C51.2546 63.4691 49.3673 64.8654 47.2509 65.9891V50.8582H53.6109V61.0909C53.3927 61.3309 53.1636 61.56 52.9346 61.7891Z" fill="#B91818"/>
<path d="M47.2509 33C56.2883 33 63.6145 25.6737 63.6145 16.6363C63.6145 7.59895 56.2883 0.272705 47.2509 0.272705C38.2135 0.272705 30.8873 7.59895 30.8873 16.6363C30.8873 25.6737 38.2135 33 47.2509 33Z" fill="#B91818"/>
<path d="M90.0473 50.8582V85.9091H47.2509V76.0036C48.3527 75.5891 49.4436 75.0982 50.5236 74.5636C51.5927 74.0182 52.6182 73.44 53.6109 72.8072V79.6254H65.7527V50.8582H72.1782V79.6254H83.6982V50.8582H90.0473Z" fill="#B91818"/>
<path d="M53.6109 61.0909V72.8073C52.6182 73.44 51.5927 74.0182 50.5236 74.5637C49.4436 75.0982 48.3527 75.5891 47.2509 76.0037V65.9891C49.3673 64.8655 51.2546 63.4691 52.9346 61.7891C53.1636 61.56 53.3927 61.3309 53.6109 61.0909Z" fill="#28295C"/>
<path d="M67.3891 55.6145C66.9309 56.9236 66.3855 58.2 65.7527 59.4436C64.5091 61.9527 62.9164 64.309 60.9964 66.5018C58.88 68.9345 56.4145 71.029 53.6109 72.8072V61.0909C55.1927 59.4 56.5018 57.5672 57.5382 55.6145H67.3891Z" fill="#28295C"/>
<path d="M57.8546 32.5745C55.76 28.2436 52.6946 24.8509 48.6364 22.4072C44.6655 19.9636 40.2582 18.7418 35.4473 18.7418C31.3237 18.7418 27.4837 19.6581 23.9273 21.4691C21.6909 22.5818 19.7055 23.9781 17.96 25.6581C16.28 27.2618 14.8509 29.0836 13.6618 31.1018C12.4727 33.0545 11.5673 35.1491 10.9346 37.3854C10.3127 39.6218 9.99638 41.8909 9.99638 44.1927C9.99638 48.0327 10.8691 51.7309 12.6146 55.2981C14.7091 59.6291 17.7418 63.0109 21.7237 65.4545C25.7709 67.8981 30.2437 69.12 35.1309 69.12C38.9055 69.12 42.6691 68.2145 46.4437 66.3927C46.7164 66.2618 46.9891 66.1309 47.2509 65.989V76.0036C43.3564 77.4872 39.32 78.229 35.1309 78.229C31.7818 78.229 28.5637 77.8145 25.4982 76.9745C22.4218 76.069 19.5637 74.8145 16.9127 73.2C14.2509 71.5309 11.8509 69.5345 9.68002 67.2327C7.58547 64.9309 5.80729 62.3127 4.34547 59.3781C3.15638 56.9345 2.25093 54.4254 1.6182 51.84C1.06184 49.2545 0.778198 46.7127 0.778198 44.1927C0.778198 41.0509 1.20365 37.9418 2.03275 34.8763C2.94911 31.8 4.20365 28.9418 5.80729 26.2909C7.41093 23.5636 9.40729 21.12 11.7746 18.96C14.1527 16.7236 16.8364 14.8363 19.8364 13.2981C24.8655 10.8545 30.0691 9.63269 35.4473 9.63269C38.7309 9.63269 41.8727 10.0909 44.8727 10.9963C47.9382 11.8363 50.8073 13.0909 53.4582 14.7709C56.1091 16.3745 58.4873 18.3272 60.5818 20.6291C62.7418 22.9309 64.5637 25.5491 66.0255 28.4836C66.7891 29.9563 67.4218 31.3854 67.9127 32.7818H62.1527C60.8218 32.7054 59.8509 32.6727 59.2182 32.6727H58.0618C57.9309 32.6072 57.8546 32.5745 57.8546 32.5745Z" fill="#28295C"/>
<path d="M76.1818 45.5454H74.7636V35.2472H76.1818V45.5454ZM74.7636 35.2472L75.2545 36.7854L72.6364 38.9126V36.9272L74.7636 35.2472ZM84.56 45.5454H83.1309V35.2472H84.56V45.5454ZM83.1418 35.2472L83.6218 36.6872L78.9854 42.9272L77.9818 41.9454L83.1418 35.2472ZM86.0545 43.3308C85.5418 43.1999 85.0509 43.1345 84.5818 43.1236C84.1127 43.1126 83.6545 43.1345 83.2291 43.189C82.7927 43.2436 82.3563 43.3199 81.9309 43.3963C81.5054 43.4726 81.08 43.5381 80.6545 43.5926C80.2291 43.6363 79.7927 43.6472 79.3454 43.6254C78.9091 43.5926 78.4509 43.4945 77.9818 43.3308V41.9454C78.4618 42.0981 78.92 42.1854 79.3564 42.2072C79.7927 42.2181 80.2182 42.1963 80.6436 42.1417C81.0691 42.0763 81.4945 41.9999 81.92 41.9126C82.3454 41.8254 82.7818 41.7599 83.2182 41.7054C83.6545 41.6508 84.1018 41.6399 84.5709 41.6726C85.04 41.6945 85.5309 41.7817 86.0436 41.9563V43.3308H86.0545Z" fill="#B91818"/>
</svg>
