<svg width="20" height="21" viewBox="0 0 20 21" fill="none" xmlns="http://www.w3.org/2000/svg">
<path d="M19.7856 15.2668C19.0411 13.8574 16.4557 12.3291 16.3419 12.2622C16.0097 12.0729 15.6631 11.9726 15.3386 11.9726C14.8563 11.9726 14.4614 12.1939 14.2223 12.5964C13.8441 13.0494 13.3751 13.5789 13.2612 13.6609C12.3803 14.2595 11.6907 14.1915 10.9277 13.4274L6.66907 9.1622C5.91086 8.40288 5.84116 7.70371 6.43475 6.82632C6.5178 6.71158 7.04651 6.24151 7.49884 5.86241C7.78729 5.69049 7.98528 5.43503 8.07204 5.12165C8.18735 4.70467 8.10244 4.21418 7.8303 3.73631C7.76616 3.6264 6.23936 1.03692 4.83268 0.291707C4.57018 0.152467 4.27431 0.078949 3.9777 0.078949C3.48903 0.078949 3.02928 0.2698 2.68373 0.615486L1.74274 1.55749C0.25449 3.04754 -0.284229 4.73661 0.140666 6.57754C0.495116 8.11178 1.52806 9.74441 3.21133 11.4298L8.66341 16.8898C10.7938 19.0233 12.8249 20.1053 14.7002 20.1053C16.0794 20.1053 17.3656 19.5183 18.5213 18.3609L19.4619 17.4189C20.0336 16.8467 20.1634 15.9816 19.7856 15.2668Z" fill="#201E21"/>
</svg>
